<svg width="191" height="52" viewBox="0 0 191 52" fill="none" xmlns="http://www.w3.org/2000/svg">
<path d="M99.6172 44.1649V34.79C99.6172 34.4088 99.9312 34.1172 100.312 34.1172H100.38C100.761 34.1172 101.075 34.4088 101.075 34.79C101.075 34.79 101.075 35.8441 101.075 36.1357C101.075 36.4048 101.254 36.4497 101.434 36.4273C102.107 36.3376 103.273 36.203 104.506 36.203C107.624 36.203 109.171 38.2888 109.171 40.4867C109.171 42.9089 107.198 45.1517 104.506 45.1517C103.632 45.1517 102.129 44.9723 101.053 44.3443C100.559 44.0752 100.783 44.8602 100.111 44.8602C99.7966 44.8602 99.6172 44.5462 99.6172 44.1649ZM101.075 42.8417C101.075 43.5369 103.094 43.8061 104.529 43.8061C106.435 43.8061 107.736 42.2361 107.736 40.4867C107.736 38.9841 106.727 37.5711 104.529 37.5487C101.479 37.5487 101.075 37.9299 101.075 38.8046C101.075 39.926 101.075 42.281 101.075 42.8417Z" fill="#164747"/>
<path d="M96.6855 34.1172C97.0668 34.1172 97.3808 34.4312 97.3808 34.8125V44.1649C97.3808 44.5462 97.0668 44.8602 96.6855 44.8602H96.6183C96.237 44.8602 95.923 44.5462 95.923 44.1649V40.2176C95.923 40.1055 95.8333 40.0157 95.7211 40.0157H89.7105C89.5983 40.0157 89.5086 40.1055 89.5086 40.2176V44.1649C89.5086 44.5462 89.1946 44.8602 88.8133 44.8602H88.746C88.3648 44.8602 88.0508 44.5462 88.0508 44.1649V34.8125C88.0508 34.4312 88.3648 34.1172 88.746 34.1172H88.8133C89.1946 34.1172 89.5086 34.4312 89.5086 34.8125V38.3561C89.5086 38.4682 89.5983 38.5579 89.7105 38.5579H95.7211C95.8333 38.5579 95.923 38.4682 95.923 38.3561V34.8125C95.923 34.4312 96.237 34.1172 96.6183 34.1172H96.6855Z" fill="#164747"/>
<path d="M74.4414 39.5219C74.4414 36.382 76.9758 33.8477 80.1157 33.8477C81.6632 33.8477 83.2107 34.4756 84.0854 35.5746C84.1527 35.6867 84.377 35.754 84.377 35.4625C84.377 35.44 84.377 35.0812 84.377 34.8121C84.377 34.4308 84.691 34.1168 85.0723 34.1168H85.1171C85.4984 34.1168 85.8124 34.4308 85.8124 34.8121V44.1869C85.8124 44.5682 85.4984 44.8822 85.1171 44.8822H85.0723C84.691 44.8822 84.377 44.5682 84.377 44.1869C84.377 44.1869 84.377 43.6711 84.377 43.5141C84.377 43.245 84.22 43.2898 84.1751 43.3571C83.2107 44.5009 81.7529 45.1513 80.1605 45.1513C77.0206 45.1513 74.4414 42.6618 74.4414 39.5219ZM75.8768 39.5219C75.8768 41.8544 77.8056 43.8057 80.1605 43.8057C82.493 43.8057 84.3546 41.8544 84.3546 39.5219C84.3546 37.1894 82.4482 35.1933 80.1157 35.1933C77.7607 35.1933 75.8768 37.1894 75.8768 39.5219Z" fill="#164747"/>
<path d="M73.9623 34.633C74.1417 35.1489 73.7156 35.6423 73.2222 35.5974C73.0427 35.575 72.8633 35.5302 72.7063 35.5302C71.4728 35.5526 71.0018 35.7544 71.0018 37.8851V44.1649C71.0018 44.5462 70.6878 44.8602 70.3065 44.8602H70.2392C69.8804 44.8602 69.5664 44.5462 69.5664 44.1649C69.5664 44.1649 69.5664 38.4234 69.5664 36.6067C69.5664 34.79 71.3158 34.1172 72.639 34.1172C73.11 34.1172 73.8053 34.1172 73.9623 34.633Z" fill="#164747"/>
<path d="M66.9077 34.1841C67.1544 34.2738 67.3338 34.5205 67.3338 34.8121V44.1645C67.3338 44.5458 67.0198 44.8598 66.6386 44.8598H66.5713C66.19 44.8598 65.876 44.5458 65.876 44.1645C65.876 44.1645 65.876 40.9573 65.876 40.6882C65.876 40.4415 65.8087 40.2396 65.4947 40.2396C65.4947 40.2396 64.7546 40.2396 64.7098 40.2396C64.2164 40.2396 63.7005 40.2845 63.4538 40.6433C62.3997 42.146 60.74 44.5682 60.74 44.5682C60.4933 44.8822 60.0672 44.9495 59.7532 44.7252L59.7083 44.6804C59.3943 44.4561 59.3495 44.0075 59.5738 43.716C59.5738 43.716 61.0764 41.6974 62.1978 40.2845C62.3773 40.0602 62.31 39.9929 62.0857 39.9256C60.6279 39.4995 59.7532 38.6921 59.7532 37.0324C59.7532 34.0271 63.0052 33.8477 64.9789 33.8477C65.6742 33.8477 66.2797 33.9374 66.9077 34.1841ZM61.1886 37.0324C61.1886 38.7818 62.624 38.8715 64.9116 38.8939C64.9116 38.8939 65.3378 38.8939 65.562 38.8939C65.8087 38.8939 65.876 38.6921 65.876 38.5351C65.876 37.5707 65.876 36.4269 65.876 35.6419C65.876 35.3728 65.6742 35.2382 65.405 35.2158C65.091 35.1933 63.8127 35.1036 63.0052 35.2158C62.0408 35.3503 61.1886 35.7765 61.1886 37.0324Z" fill="#164747"/>
<path d="M56.8803 28.4873C57.2616 28.4873 57.5756 28.8013 57.5756 29.1826V44.1644C57.5756 44.5457 57.2616 44.8597 56.8803 44.8597H56.813C56.4318 44.8597 56.1178 44.5457 56.1178 44.1644V37.4136C56.1178 37.2791 56.0281 37.1893 55.9159 37.1893H47.5503C47.4382 37.1893 47.3484 37.2791 47.3484 37.4136V44.1644C47.3484 44.5457 47.0345 44.8597 46.6532 44.8597H46.5859C46.2046 44.8597 45.8906 44.5457 45.8906 44.1644V29.1826C45.8906 28.8013 46.2046 28.4873 46.5859 28.4873H46.6532C47.0345 28.4873 47.3484 28.8013 47.3484 29.1826V35.5297C47.3484 35.6418 47.4382 35.754 47.5503 35.754H55.9159C56.0281 35.754 56.1178 35.6418 56.1178 35.5297V29.1826C56.1178 28.8013 56.4318 28.4873 56.813 28.4873H56.8803Z" fill="#164747"/>
<path d="M190.67 21.2886C190.894 21.5802 190.827 22.0287 190.536 22.253L190.491 22.2979C190.177 22.5222 189.728 22.4549 189.504 22.1409C189.504 22.1409 186.095 17.1619 185.983 17.0049C185.871 16.8703 185.714 16.8703 185.579 16.9824C185.489 17.0722 184.861 17.6777 184.57 17.9469C184.435 18.059 184.368 18.1711 184.368 18.4403C184.368 18.687 184.368 21.7372 184.368 21.7372C184.368 22.1184 184.054 22.4324 183.673 22.4324H183.605C183.224 22.4324 182.91 22.1184 182.91 21.7372V12.3847C182.91 12.0034 183.224 11.6895 183.605 11.6895H183.673C184.054 11.6895 184.368 12.0034 184.368 12.3847C184.368 12.3847 184.368 15.7489 184.368 16.018C184.368 16.2648 184.48 16.332 184.66 16.1526C184.839 15.9956 189.033 12.1156 189.033 12.1156C189.325 11.8689 189.751 11.8913 190.02 12.1604L190.065 12.2053C190.311 12.4969 190.289 12.923 189.997 13.1921C189.997 13.1921 187.082 15.8162 186.947 15.9283C186.835 16.0405 186.79 16.175 186.925 16.3545C187.082 16.5563 190.67 21.2886 190.67 21.2886Z" fill="#164747"/>
<path d="M176.113 22.724C174.027 22.724 171.762 21.6923 171.762 18.1487V12.4071C171.762 12.0034 172.098 11.6895 172.479 11.6895H172.547C172.928 11.6895 173.242 12.0034 173.242 12.4071V18.059C173.242 20.3242 174.52 21.3335 176.113 21.3335C178.176 21.3335 179.163 20.3691 179.163 18.4627C179.163 18.1936 179.163 12.4071 179.163 12.4071C179.163 12.0034 179.477 11.6895 179.881 11.6895H179.925C180.329 11.6895 180.643 12.0034 180.643 12.4071L180.666 21.7147C180.666 22.1184 180.329 22.4324 179.948 22.4324H179.881C179.522 22.4324 179.185 22.1633 179.185 21.8493C179.185 21.8045 179.185 21.6026 179.185 21.5577C179.185 21.468 179.073 21.4232 179.006 21.5129C178.356 22.41 177.01 22.724 176.113 22.724Z" fill="#164747"/>
<path d="M164.252 11.4189C167.392 11.4189 169.927 13.9533 169.927 17.0932C169.927 20.2331 167.347 22.7226 164.208 22.7226C162.615 22.7226 161.09 22.1171 160.193 20.9284C160.148 20.8611 159.991 20.8163 159.991 21.063C159.991 21.22 159.991 24.8981 159.991 24.8981C159.991 25.2794 159.677 25.571 159.296 25.571H159.251C158.87 25.571 158.578 25.2794 158.578 24.8981V12.3833C158.578 12.0021 158.87 11.6881 159.251 11.6881H159.296C159.677 11.6881 159.991 12.0021 159.991 12.3833C159.991 12.6749 159.991 13.0113 159.991 13.0338C159.991 13.3253 160.193 13.258 160.283 13.1459C161.157 12.0469 162.705 11.4189 164.252 11.4189ZM164.208 21.377C166.562 21.377 168.491 19.4257 168.491 17.0932C168.491 14.7607 166.585 12.7646 164.252 12.7646C161.92 12.7646 160.014 14.7607 160.014 17.0932C160.014 19.4257 161.875 21.377 164.208 21.377Z" fill="#164747"/>
<path d="M144.969 17.0932C144.969 13.9533 147.503 11.4189 150.643 11.4189C152.191 11.4189 153.738 12.0469 154.613 13.1459C154.68 13.258 154.904 13.3253 154.904 13.0338C154.904 13.0113 154.904 12.6525 154.904 12.3833C154.904 12.0021 155.218 11.6881 155.6 11.6881H155.644C156.026 11.6881 156.34 12.0021 156.34 12.3833V21.7582C156.34 22.1395 156.026 22.4535 155.644 22.4535H155.6C155.218 22.4535 154.904 22.1395 154.904 21.7582C154.904 21.7582 154.904 21.2424 154.904 21.0854C154.904 20.8163 154.747 20.8611 154.702 20.9284C153.738 22.0722 152.28 22.7226 150.688 22.7226C147.548 22.7226 144.969 20.2331 144.969 17.0932ZM146.404 17.0932C146.404 19.4257 148.333 21.377 150.688 21.377C153.02 21.377 154.882 19.4257 154.882 17.0932C154.882 14.7607 152.976 12.7646 150.643 12.7646C148.288 12.7646 146.404 14.7607 146.404 17.0932Z" fill="#164747"/>
<path d="M142.432 6.05957C142.814 6.05957 143.128 6.37356 143.128 6.75484V21.7367C143.128 22.0507 142.903 22.432 142.455 22.432C142.029 22.432 128.348 22.432 128.348 22.432C127.966 22.432 127.652 22.118 127.652 21.7367V6.75484C127.652 6.37356 127.966 6.05957 128.348 6.05957H128.415C128.796 6.05957 129.088 6.37356 129.088 6.75484V20.7274C129.088 20.9293 129.155 20.9742 129.379 20.9742H134.381C134.583 20.9742 134.65 20.9293 134.65 20.7274V6.75484C134.65 6.37356 134.964 6.05957 135.345 6.05957H135.412C135.794 6.05957 136.108 6.37356 136.108 6.75484V20.7274C136.108 20.9293 136.175 20.9742 136.399 20.9742H141.401C141.603 20.9742 141.67 20.9293 141.67 20.7274V6.75484C141.67 6.37356 141.984 6.05957 142.365 6.05957H142.432Z" fill="#164747"/>
<path d="M111.163 11.4189C114.302 11.4189 116.837 13.9533 116.837 17.0932C116.837 20.2331 114.258 22.7226 111.118 22.7226C109.525 22.7226 108 22.1171 107.103 20.9284C107.058 20.8611 106.901 20.8163 106.901 21.063C106.901 21.22 106.901 24.8981 106.901 24.8981C106.901 25.2794 106.587 25.571 106.206 25.571H106.161C105.78 25.571 105.488 25.2794 105.488 24.8981V12.3833C105.488 12.0021 105.78 11.6881 106.161 11.6881H106.206C106.587 11.6881 106.901 12.0021 106.901 12.3833C106.901 12.6749 106.901 13.0113 106.901 13.0338C106.901 13.3253 107.103 13.258 107.193 13.1459C108.067 12.0469 109.615 11.4189 111.163 11.4189ZM111.118 21.377C113.473 21.377 115.401 19.4257 115.401 17.0932C115.401 14.7607 113.495 12.7646 111.163 12.7646C108.83 12.7646 106.924 14.7607 106.924 17.0932C106.924 19.4257 108.785 21.377 111.118 21.377Z" fill="#164747"/>
<path d="M103.699 15.9279C103.744 16.2644 103.655 16.8251 103.027 16.8251H94.4367C94.1228 16.8251 94.0555 16.9148 94.0779 17.2512C94.1676 18.3726 94.5713 19.2921 95.3114 20.0098C96.1188 20.8172 97.1057 21.3779 98.2719 21.3779C99.4158 21.3779 100.604 20.7724 101.12 20.1444C101.636 19.5164 101.95 19.2921 102.466 19.6061C102.87 19.8753 102.87 20.3687 102.556 20.7499C101.457 22.0283 99.9092 22.7236 98.2719 22.7236C96.702 22.7236 95.3787 22.1629 94.2573 21.0639C93.1584 19.9425 92.5977 18.6193 92.5977 17.0493C92.5977 15.4794 93.1584 14.1561 94.2573 13.0572C95.3787 11.9358 96.702 11.4199 98.2719 11.4199C99.8419 11.4199 101.165 11.9358 102.287 13.0572C103.072 13.8421 103.542 14.8065 103.699 15.9279ZM101.726 15.3897C102.197 15.3897 102.062 15.1878 101.928 14.9635C101.771 14.672 101.546 14.3804 101.232 14.0888C100.403 13.259 99.4158 12.7656 98.2719 12.7656C97.1057 12.7656 96.1188 13.259 95.289 14.0888C94.9302 14.4477 94.6835 14.7841 94.504 15.0757C94.347 15.3672 94.4592 15.3897 94.818 15.3897H101.726Z" fill="#164747"/>
<path d="M90.579 11.6895C90.9603 11.6895 91.2743 12.0034 91.2743 12.3847V12.4296C91.2743 12.8109 90.9603 13.1248 90.579 13.1248H88.1792C88.0671 13.1248 87.9774 13.237 87.9774 13.3491V21.7372C87.9774 22.1184 87.6634 22.4324 87.2821 22.4324H87.2148C86.8336 22.4324 86.5196 22.1184 86.5196 21.7372V13.3491C86.5196 13.237 86.4299 13.1248 86.2953 13.1248H83.9179C83.5366 13.1248 83.2227 12.8109 83.2227 12.4296V12.3847C83.2227 12.0034 83.5366 11.6895 83.9179 11.6895H90.579Z" fill="#164747"/>
<path d="M81.6429 19.5164C81.7775 19.337 82.0018 19.2024 82.0018 19.5837C82.0018 19.8528 82.0018 20.5705 82.0018 20.9742C82.0018 21.1985 81.9345 21.3331 81.7999 21.4452C80.8355 22.2302 79.5796 22.7236 78.2339 22.7236C75.094 22.7236 72.582 20.1668 72.582 17.0493C72.582 13.9319 75.094 11.4199 78.2339 11.4199C79.5796 11.4199 80.8804 11.8236 81.8223 12.6759C81.9121 12.7656 82.0018 12.9002 82.0018 13.1244C82.0018 13.5057 82.0018 14.201 82.0018 14.358C82.0018 14.6944 81.8672 14.8514 81.5084 14.4028C80.7234 13.4384 79.5571 12.7656 78.2339 12.7656C75.9014 12.7656 74.0174 14.7168 74.0174 17.0493C74.0174 19.3818 75.9014 21.3779 78.2339 21.3779C79.6468 21.3779 80.8579 20.593 81.6429 19.5164Z" fill="#164747"/>
<path d="M66.1206 22.724C64.0348 22.724 61.7695 21.6923 61.7695 18.1487V12.4071C61.7695 12.0034 62.106 11.6895 62.4872 11.6895H62.5545C62.9358 11.6895 63.2498 12.0034 63.2498 12.4071V18.059C63.2498 20.3242 64.5282 21.3335 66.1206 21.3335C68.1839 21.3335 69.1708 20.3691 69.1708 18.4627C69.1708 18.1936 69.1708 12.4071 69.1708 12.4071C69.1708 12.0034 69.4847 11.6895 69.8884 11.6895H69.9333C70.337 11.6895 70.651 12.0034 70.651 12.4071L70.6734 21.7147C70.6734 22.1184 70.337 22.4324 69.9557 22.4324H69.8884C69.5296 22.4324 69.1932 22.1633 69.1932 21.8493C69.1932 21.8045 69.1932 21.6026 69.1932 21.5577C69.1932 21.468 69.081 21.4232 69.0138 21.5129C68.3633 22.41 67.0177 22.724 66.1206 22.724Z" fill="#164747"/>
<path d="M58.8316 6.05957C59.2128 6.05957 59.5268 6.37356 59.5268 6.75484V21.7367C59.5268 22.118 59.2128 22.432 58.8316 22.432H58.7643C58.383 22.432 58.069 22.118 58.069 21.7367C58.069 21.7367 58.069 9.89475 58.069 9.28919C58.069 8.70607 57.912 8.70607 57.6653 9.02006C56.5215 10.433 53.3816 14.3579 53.2246 14.4925C53.0227 14.6495 52.9106 14.6943 52.7087 14.6943C52.5069 14.6943 52.305 14.6046 52.1929 14.4925C52.1256 14.4028 48.9633 10.5227 47.7746 9.06492C47.5054 8.7285 47.3484 8.79578 47.3484 9.28919C47.3484 9.80504 47.3484 21.7367 47.3484 21.7367C47.3484 22.118 47.0345 22.432 46.6532 22.432H46.5859C46.2046 22.432 45.8906 22.118 45.8906 21.7367V6.75484C45.8906 6.37356 46.2046 6.05957 46.5859 6.05957C46.9223 6.05957 47.0569 6.19414 47.1466 6.26142C47.1466 6.26142 51.9462 12.0478 52.2602 12.4291C52.7536 13.0122 52.7311 12.9225 53.247 12.317C53.6058 11.8908 58.2709 6.26142 58.2709 6.26142C58.3606 6.19414 58.5176 6.05957 58.8316 6.05957Z" fill="#164747"/>
<path d="M32.7081 28.0036C33.5741 19.557 27.4289 12.0075 18.9823 11.1414C10.5357 10.2754 2.98614 16.4206 2.12012 24.8672C2.06767 25.3778 2.04227 25.885 2.04025 26.3879L2.03946 26.3878C2.03946 26.3878 1.30376 35.1318 10.3342 43.8305C11.208 44.6724 12.1723 45.4201 13.2253 46.0226C14.0402 46.4888 15.0244 47.2426 14.7594 48.0605C14.261 49.5987 14.9468 50.1459 15.6941 49.6474C16.4414 49.1488 16.5938 50.6178 17.4395 50.3411C18.2853 50.0645 18.0778 49.135 18.883 49.5507C19.6883 49.9662 20.315 49.758 20.1069 49.1313C19.8987 48.5043 19.7819 48.4623 19.5706 47.8652C19.3593 47.2682 19.0545 46.9949 20.3151 46.2158C21.5756 45.4368 31.5156 39.7196 32.6243 28.6777L32.622 28.6775C32.6546 28.4542 32.6851 28.2302 32.7081 28.0036Z" fill="#2BB1B4"/>
<path d="M4.02631 32.1828C4.02631 32.1828 1.54539 27.1755 3.96134 21.5142C4.64834 19.9043 6.72081 21.0858 5.69781 23.326C3.87948 27.3078 5.82856 34.8593 4.02631 32.1828Z" fill="#47E3E6"/>
<path d="M6.85012 18.1143C7.37467 18.3381 7.6184 18.9447 7.39455 19.4693C7.1707 19.9938 6.5641 20.2375 6.03955 20.0137C5.51501 19.7898 5.27128 19.1832 5.49513 18.6587C5.71898 18.1341 6.32557 17.8904 6.85012 18.1143Z" fill="#47E3E6"/>
<path d="M31.7794 29.3161C31.871 28.4327 31.0504 27.8705 30.4352 29.9761C29.7603 32.2858 29.0769 34.6036 26.9708 37.1383C25.7003 38.931 27.0488 39.0837 28.3974 37.3728C29.3549 36.1576 31.4374 32.6138 31.7794 29.3161Z" fill="#238283"/>
<path fill-rule="evenodd" clip-rule="evenodd" d="M17.4324 36.738C17.2518 37.2592 16.909 37.7257 16.4507 38.0999C14.1178 40.368 5.85517 41.7022 2.85921 38.6486C-0.139111 35.5926 2.12292 33.3644 3.57032 33.0801C5.01771 32.7958 7.27168 35.2114 4.96031 34.6437C3.11122 34.1895 3.1942 35.0059 3.46683 35.4709C5.29883 37.9266 8.67811 35.7493 10.5357 34.0229C10.6327 33.917 10.7377 33.8162 10.85 33.721L10.8576 33.7135L10.8583 33.714C11.5683 33.1163 12.5679 32.7441 13.6753 32.7441C15.4651 32.7441 16.9732 33.7162 17.4324 35.0414C17.8915 33.7162 19.3997 32.7441 21.1894 32.7441C22.2968 32.7441 23.2964 33.1163 24.0064 33.714L24.0071 33.7135L24.0147 33.721C24.127 33.8162 24.2321 33.917 24.329 34.0229C26.1866 35.7493 29.5659 37.9266 31.3979 35.4709C31.6705 35.0059 31.7535 34.1895 29.9044 34.6437C27.593 35.2114 29.847 32.7958 31.2944 33.0801C32.7418 33.3644 35.0038 35.5926 32.0055 38.6486C29.0095 41.7022 20.7469 40.368 18.414 38.0999C17.9557 37.7257 17.6129 37.2592 17.4324 36.738Z" fill="#164747"/>
<path d="M24.0431 46.4578C23.8033 45.7631 23.7011 44.4158 22.6058 43.9712C21.6241 43.5731 18.6075 45.8539 17.9946 46.3295C17.6415 46.1944 17.1494 46.213 16.8471 46.3188C16.2038 45.821 13.2244 43.576 12.2495 43.9716C11.1545 44.4161 11.0516 45.7634 10.8121 46.4582C10.5727 47.1543 10.8468 48.5231 11.4969 48.8654C12.113 49.1899 16.1981 47.7944 16.6259 47.6464C16.8857 47.8476 17.3717 47.9606 17.8066 47.873C17.9746 47.8394 18.1165 47.7583 18.2255 47.645C18.62 47.7812 22.7405 49.191 23.3591 48.8654C24.0088 48.5231 24.2826 47.154 24.0431 46.4578Z" fill="#164747"/>
<path d="M32.2106 13.3506C31.6068 13.252 31.3841 13.3506 30.7982 13.5611C29.3304 14.0871 28.0754 14.4019 28.0754 14.4019C28.0754 14.4019 27.7202 13.5849 27.6284 12.5095C27.5547 11.639 27.9384 8.30234 27.9037 7.01073C27.8695 5.71853 27.6628 4.30664 27.1458 3.3444C26.6293 2.38274 26.1304 1.45168 23.6315 0.609717C22.1231 0.101866 18.8654 0 17.2643 0C15.6627 0 12.4056 0.101866 10.8966 0.609717C8.39773 1.45168 7.89968 2.38274 7.38262 3.3444C6.86586 4.30664 6.65945 5.71853 6.62529 7.01073C6.59025 8.30263 6.97396 11.6393 6.9003 12.5095C6.80972 13.5852 6.45304 14.4019 6.45304 14.4019C6.45304 14.4019 5.19915 14.0871 3.73113 13.5611C3.14458 13.3506 2.92243 13.252 2.31895 13.3506C1.60112 13.4679 0.939434 13.9517 1.0615 15.0633C1.1497 15.8693 1.81822 16.9563 2.50694 17.5423C2.88293 17.8618 4.14425 18.6391 7.24511 19.105C10.3454 19.5707 13.1017 19.781 13.3426 19.781C13.5838 19.781 16.281 19.9161 17.2646 19.9161C18.2474 19.9161 20.9458 19.781 21.1867 19.781C21.4278 19.781 24.1836 19.5707 27.2836 19.105C30.3844 18.6391 31.6461 17.8615 32.0217 17.5423C32.7108 16.956 33.3796 15.8693 33.4675 15.0633C33.589 13.9514 32.9279 13.4676 32.2106 13.3506Z" fill="#164747"/>
<path d="M9.11615 13.9806C9.11615 13.9806 6.63523 8.97339 9.05118 3.31205C9.73818 1.70219 11.8107 2.8836 10.7877 5.12387C8.96933 9.10564 10.9184 16.6572 9.11615 13.9806Z" fill="#327171"/>
<path d="M26.1535 8.79046C26.8998 8.77408 26.4129 10.7657 26.7198 12.2138C27.5587 15.1439 27.1272 15.0027 25.6764 15.0026C24.6594 15.0026 24.6474 13.743 24.6138 12.2139C24.5803 10.6848 25.4072 8.80684 26.1535 8.79046Z" fill="#0A3333"/>
<path d="M18.5143 47.0962C18.5143 47.6035 18.0284 48.0147 17.429 48.0147C16.8296 48.0147 16.3438 47.6035 16.3438 47.0962C16.3438 46.589 16.8296 46.1777 17.429 46.1777C18.0284 46.1777 18.5143 46.589 18.5143 47.0962Z" fill="#1F6161"/>
</svg>
